<svg id="visual" viewBox="0 0 900 600" width="900" height="600" xmlns="http://www.w3.org/2000/svg" xmlns:xlink="http://www.w3.org/1999/xlink" version="1.1"><rect x="0" y="0" width="900" height="600" fill="#17352d"></rect><path d="M0 502L15 501.2C30 500.3 60 498.7 90 480.7C120 462.7 150 428.3 180 420.8C210 413.3 240 432.7 270 448.7C300 464.7 330 477.3 360 479.5C390 481.7 420 473.3 450 447.3C480 421.3 510 377.7 540 367.8C570 358 600 382 630 403.3C660 424.7 690 443.3 720 437.3C750 431.3 780 400.7 810 385.8C840 371 870 372 885 372.5L900 373L900 601L885 601C870 601 840 601 810 601C780 601 750 601 720 601C690 601 660 601 630 601C600 601 570 601 540 601C510 601 480 601 450 601C420 601 390 601 360 601C330 601 300 601 270 601C240 601 210 601 180 601C150 601 120 601 90 601C60 601 30 601 15 601L0 601Z" fill="#7c694c" stroke-linecap="round" stroke-linejoin="miter"></path></svg>